<svg viewBox="0 0 190 134" xmlns="http://www.w3.org/2000/svg" fill-rule="evenodd" clip-rule="evenodd" stroke-linejoin="round" stroke-miterlimit="1.414"><path d="M41.71 61.837S15.934 102.22 2 114.337c0 0 11.316-9.723 23-2.5 11.684 7.222 8.9 15.227 26.5 11.5 17.6-3.728 24.392-4.29 33 .5 8.608 4.788 15.33-7.862 30.5-2 15.17 5.86 36.925-60 36.925-60H41.71z" fill="#333"/><path d="M151.56 71.506s15.393-7.57 27.766-22.466c8.27-9.957 8.45-23.757 1.64-31.295-3.162-3.5-5.275.492-5.275.492l-5.758 17.09s-20.025 4.122-21.536 9.523c-1.512 5.4 3.163 26.656 3.163 26.656z" fill="#fdeb96"/><path d="M186.308 24.423s-8.97 3.144-13.22-1.573c-4.25-4.717 2.802-9.915 2.802-9.915s-4.86-.144-4.814-3.694c.04-3.084 3.852-4.474 7.77-2.397 5.97 3.166 7.462 17.58 7.462 17.58z" fill="#ef6e67"/><ellipse cx="36.333" cy="104.213" rx="1.75" ry="5.592" fill="#ef6e67"/><path d="M46.45 52.766s-12.146 4-30 11.5c-11.935 5.013 3.518 28.255 12.5 33 8.98 4.745 5.5-4.5 5.5-4.5l-4.5-14s13.664 3.593 17.5-.5c3.833-4.092-1-25.5-1-25.5z" fill="#fdeb96"/><path d="M34.45 87.266s-9.41 1.354-11 7.5c-1.592 6.147 7.063 7.5 7.063 7.5s1.742 1.944-2.064 1.5c-3.807-.443.536 4.514 7 2.54 6.462-1.976-1-19.04-1-19.04z" fill="#ef6e67"/><g><path d="M72.48 92.61l-6.21 32.5 6.21-.5 20.79-15.71-20.79-16.29z" fill="#fdeb96"/><path d="M66.27 119.07l13.5.5s-3.194 7.79-4.394 8.54c-1.912 1.193-14.5.46-14.5.46s1.29-3.718 4.5-3.96c.018.012.894-5.54.894-5.54" fill="#ef6e67"/><g><path d="M127.52 92.197l6.21 32.5-6.21-.5-20.79-15.71 20.79-16.29z" fill="#fdeb96"/><path d="M133.73 118.658l-13.5.5s3.194 7.79 4.394 8.54c1.912 1.192 14.5.46 14.5.46s-1.29-3.718-4.5-3.96c-.018.01-.894-5.54-.894-5.54" fill="#ef6e67"/></g></g><g><path d="M151.925 14.837c0-6.32-5.13-11.453-11.452-11.453h-87.31c-6.322 0-11.454 5.132-11.454 11.453v84c0 6.32 5.13 11.452 11.452 11.452h87.31c6.322 0 11.453-5.133 11.453-11.454v-84z" fill="#ed7069"/><path fill="#333" d="M41.71 26.45h110.215V41H41.71z"/><g fill="#333"><path d="M92.672 68.06c0-1.124-.913-2.037-2.037-2.037H53.43c-1.123 0-2.036.913-2.036 2.037 0 1.125.913 2.037 2.037 2.037h37.205c1.124 0 2.037-.912 2.037-2.037zM142.24 68.06c0-1.124-.912-2.037-2.037-2.037H103c-1.125 0-2.038.913-2.038 2.037 0 1.125.913 2.037 2.037 2.037h37.203c1.125 0 2.037-.912 2.037-2.037zM92.672 76.576c0-1.124-.913-2.037-2.037-2.037H53.43c-1.123 0-2.036.912-2.036 2.036 0 1.125.913 2.037 2.037 2.037h37.205c1.124 0 2.037-.912 2.037-2.037zM142.24 76.576c0-1.124-.912-2.037-2.037-2.037H103c-1.125 0-2.038.912-2.038 2.036 0 1.125.913 2.037 2.037 2.037h37.203c1.125 0 2.037-.912 2.037-2.037zM92.672 85.092c0-1.124-.913-2.037-2.037-2.037H53.43c-1.123 0-2.036.913-2.036 2.037 0 1.124.913 2.037 2.037 2.037h37.205c1.124 0 2.037-.914 2.037-2.038zM142.24 85.092c0-1.124-.912-2.037-2.037-2.037H103c-1.125 0-2.038.913-2.038 2.037 0 1.124.913 2.037 2.037 2.037h37.203c1.125 0 2.037-.914 2.037-2.038z"/></g><path d="M96.817 45.265c8.92 0 16.16-3.477 16.16-.104 0 3.374-7.24 7.356-16.16 7.356-8.918 0-16.16-3.982-16.16-7.355 0-3.372 7.242.105 16.16.105z" fill="#333"/><clipPath id="a"><path d="M96.817 45.265c8.92 0 16.16-3.477 16.16-.104 0 3.374-7.24 7.356-16.16 7.356-8.918 0-16.16-3.982-16.16-7.355 0-3.372 7.242.105 16.16.105z"/></clipPath><g clip-path="url(#a)"><circle cx="96.817" cy="53.294" r="4.143" fill="#ff9b77"/></g><circle cx="56.56" cy="33.753" r="5.565" fill="#fff"/><circle cx="56.56" cy="33.845" r="2.652" fill="#333"/><g><circle cx="137.075" cy="33.753" r="5.565" fill="#fff"/><circle cx="137.075" cy="33.845" r="2.652" fill="#333"/></g><path d="M93.03 3.384h9.925L99.43 8.347h6.92l-19.065 13.84L95.12 11.48l-7.835.262 5.745-8.358z" fill="#fdeb96"/></g></svg>